<svg width="30" height="27" viewBox="0 0 30 27" fill="none" xmlns="http://www.w3.org/2000/svg">
<path d="M29.7322 7.04855C29.5942 6.8531 29.41 6.69335 29.1953 6.58298C28.9805 6.47261 28.7417 6.41491 28.4992 6.41483H7.99929L6.26833 2.34198C6.04137 1.80563 5.65705 1.34742 5.1641 1.02545C4.67115 0.703475 4.09176 0.53224 3.49941 0.533454H0V3.47414H3.49941L10.6152 20.214C10.7292 20.4818 10.9215 20.7106 11.1678 20.8715C11.4142 21.0325 11.7036 21.1183 11.9997 21.1183H23.9994C24.6248 21.1183 25.1843 20.7375 25.4048 20.1655L29.9047 8.40274C29.9898 8.18016 30.0185 7.94069 29.9884 7.70484C29.9584 7.46899 29.8705 7.2438 29.7322 7.04855Z" fill="white"/>
<path d="M12.7509 26.9997C13.9935 26.9997 15.0009 26.0122 15.0009 24.7941C15.0009 23.5761 13.9935 22.5886 12.7509 22.5886C11.5083 22.5886 10.501 23.5761 10.501 24.7941C10.501 26.0122 11.5083 26.9997 12.7509 26.9997Z" fill="white"/>
<path d="M23.249 26.9997C24.4916 26.9997 25.4989 26.0122 25.4989 24.7941C25.4989 23.5761 24.4916 22.5886 23.249 22.5886C22.0064 22.5886 20.999 23.5761 20.999 24.7941C20.999 26.0122 22.0064 26.9997 23.249 26.9997Z" fill="white"/>
</svg>
