<svg width="16" height="14" viewBox="0 0 16 14" fill="none" xmlns="http://www.w3.org/2000/svg">
<path d="M0.2 7.4023H1.15V13.41H0.2C0.1 13.41 0 13.3027 0 13.1954V7.56322C0 7.45594 0.1 7.4023 0.2 7.4023ZM7.8 0H4.45C4.35 0 4.3 0.10728 4.3 0.214559V1.98467H7.85L7.8 0ZM9.1 2.19923C9.15 2.19923 9.2 2.19923 9.2 2.25287L10 3.00383V0H8.15V2.95019L9 2.25287C9.05 2.19923 9.1 2.19923 9.1 2.19923ZM7.85 7.29502L8 7.4023H10.8C11.3 7.4023 11.7 7.6705 12 8.04598L13.85 6.0613C13.9 6.00766 13.9 6.00766 13.95 5.95402V2.41379H10.4V3.43295C10.4 3.48659 10.35 3.59387 10.3 3.59387C10.25 3.64751 10.15 3.59387 10.1 3.54023L9.1 2.62835L8.1 3.54023C8.05 3.59387 7.95 3.59387 7.9 3.59387C7.85 3.54023 7.8 3.48659 7.8 3.43295V2.41379H4.3V6.81226C5.5 6.38314 6.75 6.5977 7.85 7.29502ZM13.95 0.214559C13.95 0.10728 13.85 0 13.75 0H10.4V1.98467H13.95V0.214559ZM3 6.81226H1.7C1.55 6.81226 1.5 6.8659 1.5 6.97318V13.7854C1.5 13.8927 1.6 14 1.7 14H3C3.05 14 3.1 14 3.15 13.9464C3.2 13.8927 3.2 13.8391 3.2 13.7854V6.97318C3.2 6.91954 3.2 6.8659 3.15 6.81226C3.05 6.81226 3.05 6.81226 3 6.81226ZM15.7 6.3295C15.5 6.11494 15.2 6.00766 14.9 6.00766C14.6 6.00766 14.35 6.11494 14.1 6.3295L12.15 8.42146C12.2 8.58238 12.25 8.79693 12.25 9.01149C12.25 9.44061 12.1 9.81609 11.8 10.1379C11.5 10.4598 11.15 10.6207 10.75 10.6207H7.2C7.1 10.6207 7 10.5134 7 10.4061C7 10.2989 7.1 10.1916 7.2 10.1916H10.75C11.15 10.1916 11.5 9.97701 11.7 9.60153C11.9 9.22605 11.9 8.79694 11.7 8.42146C11.5 8.04598 11.15 7.83142 10.75 7.83142H7.8L7.6 7.6705C7 7.24138 6.3 7.02682 5.55 7.02682C4.85 7.02682 4.1 7.18774 3.5 7.56322V13.0345H11C11.05 13.0345 11.1 13.0345 11.15 12.9808L15.7 8.09962C15.9 7.88506 16 7.56322 16 7.24138C16 6.8659 15.9 6.54406 15.7 6.3295Z" fill="white"/>
</svg>
